<?xml version="1.0" encoding="utf-8"?>
<!-- Generator: Adobe Illustrator 21.0.2, SVG Export Plug-In . SVG Version: 6.00 Build 0)  -->
<svg version="1.1" id="Layer_1" xmlns="http://www.w3.org/2000/svg" xmlns:xlink="http://www.w3.org/1999/xlink" x="0px" y="0px"
	 viewBox="0 0 400 400" style="enable-background:new 0 0 400 400;" xml:space="preserve">
<style type="text/css">
	.st0{fill:#FFFFFF;stroke:#FFFFFF;stroke-miterlimit:10;}
</style>
<g>
	<g id="layer5">
		<path class="st0" d="M34.5,281c-0.8-1.6-3-6.7-4.9-11.3c-15.1-37.4-17.4-81.8-6.4-120.2c4.6-16.3,11.8-33.5,14-33.5
			c1.3,0,56.4,42.2,60.5,46.3l2.1,2.2l-2.5,9.5c-2.3,8.3-2.6,11.6-2.7,25.5c0,13.2,0.4,17.5,2.1,24.5c1.2,4.7,2.4,9.2,2.8,10.1
			c0.5,1.3-6.6,7.3-30.5,25.8C51.9,273.1,37.5,284,37,284S35.4,282.7,34.5,281z"/>
	</g>
	<g id="layer6">
		<path class="st0" d="M324.8,339.9c-0.6-0.7-13.6-11.1-29.1-23s-28-22.3-28-23c0-0.6,2.4-3,5.4-5.2c8.8-6.7,18.7-19.7,23.7-30.9
			c2.3-5.3,5.8-15.9,5.8-17.8c0-1-11.1-1.3-50-1.5l-50.1-0.3v-36.9v-36.9l87.7-0.3c69.5-0.2,88,0.1,88.8,1
			c2.9,3.6,4.9,37.8,3.3,56.6c-4,46.1-20,83.5-48.7,113.8C328,341.5,326.8,342.1,324.8,339.9z"/>
	</g>
	<g id="layer7">
		<path class="st0" d="M191,387c-61.3-4-116.4-38-148.7-91.8c-3.5-5.8-6.2-10.9-6.1-11.3c0.6-1.5,61.1-47.9,62.5-47.9
			c0.8,0,1.9,1.5,2.5,3.3c2.4,6.8,10.5,21.5,16.1,28.8c15.1,20.1,36.1,34,61.6,40.6c25.8,6.7,60,1.9,83.1-11.7
			c4.3-2.5,5.4-2.8,6.9-1.8c12.1,8.8,59.1,46.2,58.9,46.9c-0.7,1.9-18.5,15.2-27.4,20.5c-23.3,13.7-52.1,22.5-78.4,23.9
			c-5.8,0.3-12.5,0.7-15,0.9C204.5,387.6,197.3,387.4,191,387z"/>
	</g>
	<g id="layer8">
		<path class="st0" d="M67.5,140.6c-16.5-12.9-30.2-24.1-30.3-25.1c-0.5-2.2,9.2-18.2,17.9-29.6c33.2-43.1,82.7-69.5,136.4-72.8
			c42-2.6,81.2,7.7,114,29.7c10.6,7.1,22.4,16.7,23.2,18.9c0.4,1-7.6,9.6-25.8,27.9C288.4,104.1,276,116,275.4,116
			c-0.6,0-2.1-1.2-3.5-2.6c-4.2-4.5-19.9-14.3-28.1-17.4c-15-5.8-23.7-7.4-40.3-7.3c-16.6,0-26.9,2.1-41.6,8.2
			c-17.8,7.4-37,23.2-47.9,39.5c-4.5,6.8-11.2,19.8-13.3,25.9c-0.4,0.9-1.2,1.7-1.9,1.6C98.1,163.9,84,153.4,67.5,140.6z"/>
	</g>
</g>
</svg>
