<!DOCTYPE svg PUBLIC "-//W3C//DTD SVG 20010904//EN" "http://www.w3.org/TR/2001/REC-SVG-20010904/DTD/svg10.dtd">
<svg version="1.0" xmlns="http://www.w3.org/2000/svg" width="400px" height="400px" viewBox="0 0 4000 4000" preserveAspectRatio="xMidYMid meet">
<g id="layer1" fill="#399b92" stroke="none">
 </g>
<g id="layer2" fill="#3c94b0" stroke="none">
 </g>
<g id="layer3" fill="#3f8dd1" stroke="none">
 </g>
<g id="layer4" fill="#37a073" stroke="none">
 </g>
<g id="layer5" fill="#fbbc05" stroke="none">
 <path d="M345 2810 c-8 -16 -30 -67 -49 -113 -151 -374 -174 -818 -64 -1202 46 -163 118 -335 140 -335 13 0 564 422 605 463 l21 22 -25 95 c-23 83 -26 116 -27 255 0 132 4 175 21 245 12 47 24 92 28 101 5 13 -66 73 -305 258 -171 132 -315 241 -320 241 -5 0 -16 -13 -25 -30z"/>
 </g>
<g id="layer6" fill="#4285f4" stroke="none">
 <path d="M3253 3406 c-6 -7 -137 -111 -292 -231 -155 -120 -281 -224 -281 -231 0 -6 24 -30 54 -52 88 -67 188 -198 238 -310 23 -53 58 -160 58 -179 0 -10 -111 -13 -502 -15 l-503 -3 0 -370 0 -370 881 -3 c698 -2 884 1 892 10 29 36 49 380 33 568 -40 463 -201 838 -489 1143 -57 59 -69 65 -89 43z"/>
 </g>
<g id="layer7" fill="#34a853" stroke="none">
 <path d="M1910 3870 c-613 -40 -1164 -380 -1487 -918 -35 -58 -62 -109 -61 -113 6 -15 611 -479 625 -479 8 0 19 15 25 33 24 68 105 215 161 288 151 201 361 340 616 406 258 67 600 19 831 -117 43 -25 54 -28 69 -18 121 88 591 462 589 469 -7 19 -185 152 -274 205 -233 137 -521 225 -784 239 -58 3 -125 7 -150 9 -25 2 -97 0 -160 -4z"/>
 </g>
<g id="layer8" fill="#ea4335" stroke="none">
 <path d="M675 1406 c-165 -129 -302 -241 -303 -251 -5 -22 92 -182 179 -296 332 -431 827 -695 1364 -728 420 -26 812 77 1140 297 106 71 224 167 232 189 4 10 -76 96 -258 279 -145 145 -269 264 -275 264 -6 0 -21 -12 -35 -26 -42 -45 -199 -143 -281 -174 -150 -58 -237 -74 -403 -73 -166 0 -269 21 -416 82 -178 74 -370 232 -479 395 -45 68 -112 198 -133 259 -4 9 -12 17 -19 16 -7 0 -148 -105 -313 -233z"/>
 </g>

</svg>